<?xml version="1.0" standalone="no"?>
<!DOCTYPE svg PUBLIC "-//W3C//DTD SVG 20010904//EN"
 "http://www.w3.org/TR/2001/REC-SVG-20010904/DTD/svg10.dtd">
<svg version="1.0" xmlns="http://www.w3.org/2000/svg"
 width="335.000000pt" height="335.000000pt" viewBox="0 0 335.000000 335.000000"
 preserveAspectRatio="xMidYMid meet">
<metadata>
Created by potrace 1.11, written by Peter Selinger 2001-2013
</metadata>
<g transform="translate(0.000000,335.000000) scale(0.100000,-0.100000)"
fill="#000000" stroke="none">
<path d="M1539 3236 c-2 -2 -31 -7 -64 -10 -133 -13 -195 -26 -325 -68 -102
-32 -296 -132 -400 -206 -104 -74 -301 -263 -371 -357 -153 -205 -245 -420
-288 -668 -24 -140 -22 -429 3 -557 1 -8 6 -33 10 -55 12 -64 65 -224 98 -295
37 -80 135 -247 158 -270 3 -3 18 -23 35 -45 38 -51 214 -228 285 -287 88 -73
236 -164 334 -206 139 -60 118 -53 261 -91 148 -39 165 -41 360 -46 251 -7
401 18 651 109 151 55 353 189 509 338 210 201 338 394 423 638 26 74 37 121
67 275 4 17 8 100 10 185 5 238 -17 377 -92 580 -80 216 -181 369 -373 561
-266 267 -538 406 -910 464 -41 7 -376 16 -381 11z"/>
</g>
</svg>
